<svg width="440" height="250" viewBox="0 0 440 250" fill="none" xmlns="http://www.w3.org/2000/svg">
<path d="M201.598 141.091C201.203 171.264 199.599 187.936 198.501 193.536C194.501 210.336 183.834 219.87 179.001 222.536C171.001 226.936 156.334 219.036 150.001 214.536C141.201 207.336 136.001 177.536 134.501 163.536C133.301 150.336 126.667 153.37 123.501 156.536C114.301 168.936 111.001 184.036 110.501 190.036V226.036C110.501 232.036 112.001 234.036 109.001 242.036C106.001 250.036 100.834 245.536 100.501 240.536C97.5006 165.536 78.8339 88.0364 65.0006 57.5364C59.6672 46.7031 45.7006 24.4364 32.5006 22.0364M201.598 141.091C201.803 125.471 201.683 106.231 201.001 83.0364C201.667 66.5364 199.701 29.5364 186.501 13.5364C183.501 11.3697 178.001 13.6364 180.001 40.0364C180.667 61.703 184.901 109.936 196.501 129.536L201.598 141.091ZM201.598 141.091L211.501 163.536C214.001 170.703 220.301 185.536 225.501 187.536C231.659 189.905 245.897 182.399 251.203 170.972M251.203 170.972C251.497 170.339 251.764 169.693 252.001 169.036C256.501 156.536 272.501 113.536 259.001 101.536C245.501 89.5364 237.001 132.536 244.501 155.036C246.446 160.874 248.695 166.375 251.203 170.972ZM251.203 170.972C258.362 184.093 267.633 189.847 278.001 175.036C284.208 164.018 297.064 138.577 302.033 119.625M302.033 119.625C302.401 118.224 302.725 116.858 303.001 115.536C308.001 91.5364 307.501 5.53638 298.501 3.03638C291.257 1.02427 295.997 82.8995 302.033 119.625ZM302.033 119.625C303.497 128.53 305.037 134.78 306.501 136.536C314.001 145.536 322.001 170.036 389.001 160.036C442.601 152.036 439.667 131.036 431.501 121.536" stroke="black" stroke-width="6" stroke-linecap="round"/>
<path d="M3.00058 108.536C21.6672 112.203 66.9006 118.436 98.5006 114.036C130.101 109.636 266.667 73.5364 331.001 56.0364C352.334 49.7031 400.401 32.5364 422.001 14.5364" stroke="black" stroke-width="6" stroke-linecap="round"/>
</svg>
